<svg width="185" height="239" viewBox="0 0 185 239" fill="none" xmlns="http://www.w3.org/2000/svg">
<g filter="url(#filter0_n_280_500)">
<path d="M56.6758 110.308V0H44.1328V56.1215C41.2658 71.1056 36.4141 77.4089 21.9414 78.3765C7.46875 79.3441 -21.0957 70.7211 -43.668 55.1539L-52.3516 67.7328L-35.9492 80.3117C-30.2011 85.4503 -27.9144 89.475 -26.3008 99.664C-26.7257 107.597 -29.0303 111.813 -35.9492 119.016L-52.3516 131.595H-62V150.947L-60.0703 156.753L-62 183.846V201.263L-56.2109 190.152L-43.668 143.206C-20.6711 126.275 -6.1748 121.352 21.9414 119.016L44.1328 139.876L77.9023 173.742C106.579 175.743 121.235 180.232 143.512 197.393C151.255 210.893 154.324 221.077 159.914 239L167.633 237.065C164.764 222.461 159.21 210.63 166.202 205.134L172.457 198.86L185 202.231V191.587C171.048 190.412 164.059 188.679 152.195 184.814C133.591 173.481 127.109 165.462 126.145 153.85C125.18 142.239 132.893 135.545 152.195 122.887L185 118.049V111.275C174.156 111.901 169.958 111.251 165.703 108.372L185 94.8259V76.4413L160.879 95.7935C157.96 90.6865 158.618 83.5652 159.914 70.6356L169.562 47.0441L161.844 42.5749L148.336 70.6356C148.309 85.0156 146.805 93.3158 142.547 108.372C118.661 126.116 110.38 140.019 83.6914 139.876C69.2617 139.106 58.032 127.139 56.6758 110.308Z" fill="#E4E4E4" fill-opacity="0.16"/>
</g>
</svg>
